<?xml version="1.0" encoding="utf-8"?>
<!-- Generator: Adobe Illustrator 27.5.0, SVG Export Plug-In . SVG Version: 6.00 Build 0)  -->
<svg version="1.1" xmlns="http://www.w3.org/2000/svg" xmlns:xlink="http://www.w3.org/1999/xlink" x="0px" y="0px"
	 viewBox="0 0 500 500" style="enable-background:new 0 0 500 500;" xml:space="preserve">
<g id="BACKGROUND">
	<rect style="fill:#FFFFFF;" width="500" height="500"/>
</g>
<g id="OBJECTS_copia">
	<g>
		<path style="fill:#F5DF60;" d="M195.829,287.638h-13.112v23.048h-31.762v-23.048h-47.481v-23.619l49.517-72.402h29.727v71.995
			h13.112V287.638z M150.955,263.612v-13.845c0-2.606,0.094-6.12,0.285-10.547c0.189-4.424,0.338-6.746,0.448-6.963h-0.896
			c-1.846,4.181-3.937,8.091-6.271,11.728l-13.194,19.627H150.955z"/>
		<path style="fill:#F5DF60;" d="M290.22,251.314c0,21.067-3.53,36.5-10.587,46.301c-7.058,9.8-17.864,14.699-32.413,14.699
			c-14.226,0-24.949-5.116-32.17-15.352c-7.222-10.233-10.832-25.451-10.832-45.649c0-21.175,3.529-36.702,10.588-46.585
			c7.057-9.881,17.863-14.822,32.414-14.822c14.171,0,24.88,5.145,32.128,15.433C286.596,215.63,290.22,230.953,290.22,251.314z
			 M236.224,251.314c0,13.466,0.841,22.723,2.525,27.772c1.682,5.049,4.506,7.574,8.47,7.574c4.017,0,6.853-2.606,8.51-7.819
			c1.656-5.212,2.484-14.387,2.484-27.527c0-13.193-0.842-22.438-2.524-27.731c-1.684-5.294-4.508-7.94-8.47-7.94
			c-3.964,0-6.788,2.553-8.47,7.655C237.065,228.402,236.224,237.74,236.224,251.314z"/>
		<path style="fill:#F5DF60;" d="M391.289,287.638h-13.111v23.048h-31.763v-23.048h-47.481v-23.619l49.517-72.402h29.727v71.995
			h13.111V287.638z M346.415,263.612v-13.845c0-2.606,0.094-6.12,0.285-10.547c0.189-4.424,0.338-6.746,0.448-6.963h-0.896
			c-1.846,4.181-3.938,8.091-6.271,11.728l-13.193,19.627H346.415z"/>
	</g>
	<g>
		
			<line style="fill:none;stroke:#000000;stroke-width:2.1628;stroke-linecap:round;stroke-linejoin:round;stroke-miterlimit:10;" x1="55.75" y1="218.036" x2="103.887" y2="218.036"/>
		
			<line style="fill:none;stroke:#000000;stroke-width:2.1628;stroke-linecap:round;stroke-linejoin:round;stroke-miterlimit:10;" x1="115.441" y1="218.036" x2="125.717" y2="218.036"/>
		
			<line style="fill:none;stroke:#000000;stroke-width:2.1628;stroke-linecap:round;stroke-linejoin:round;stroke-miterlimit:10;" x1="47.033" y1="204.488" x2="133.208" y2="204.488"/>
		
			<line style="fill:none;stroke:#000000;stroke-width:2.1628;stroke-linecap:round;stroke-linejoin:round;stroke-miterlimit:10;" x1="39.94" y1="204.488" x2="32.847" y2="204.488"/>
		
			<line style="fill:none;stroke:#000000;stroke-width:2.1628;stroke-linecap:round;stroke-linejoin:round;stroke-miterlimit:10;" x1="47.033" y1="191.617" x2="75.643" y2="191.617"/>
		
			<line style="fill:none;stroke:#000000;stroke-width:2.1628;stroke-linecap:round;stroke-linejoin:round;stroke-miterlimit:10;" x1="83.303" y1="191.617" x2="143.388" y2="191.617"/>
	</g>
	<g>
		
			<line style="fill:none;stroke:#000000;stroke-width:2.1628;stroke-linecap:round;stroke-linejoin:round;stroke-miterlimit:10;" x1="396.009" y1="325.524" x2="447.521" y2="325.524"/>
		
			<line style="fill:none;stroke:#000000;stroke-width:2.1628;stroke-linecap:round;stroke-linejoin:round;stroke-miterlimit:10;" x1="455.899" y1="325.524" x2="463.35" y2="325.524"/>
		
			<line style="fill:none;stroke:#000000;stroke-width:2.1628;stroke-linecap:round;stroke-linejoin:round;stroke-miterlimit:10;" x1="406.296" y1="311.975" x2="473.803" y2="311.975"/>
		
			<line style="fill:none;stroke:#000000;stroke-width:2.1628;stroke-linecap:round;stroke-linejoin:round;stroke-miterlimit:10;" x1="401.152" y1="311.975" x2="396.009" y2="311.975"/>
		
			<line style="fill:none;stroke:#000000;stroke-width:2.1628;stroke-linecap:round;stroke-linejoin:round;stroke-miterlimit:10;" x1="396.009" y1="299.104" x2="427.041" y2="299.104"/>
		
			<line style="fill:none;stroke:#000000;stroke-width:2.1628;stroke-linecap:round;stroke-linejoin:round;stroke-miterlimit:10;" x1="432.595" y1="299.104" x2="455.899" y2="299.104"/>
	</g>
	<g>
		<path style="fill:none;stroke:#000000;stroke-width:3.2675;stroke-miterlimit:10;" d="M201.994,287.183h-13.112v23.048h-31.762
			v-23.048h-47.481v-23.619l49.517-72.402h29.727v71.995h13.112V287.183z M157.119,263.157v-13.845c0-2.606,0.094-6.12,0.285-10.547
			c0.189-4.424,0.338-6.746,0.448-6.963h-0.896c-1.846,4.181-3.937,8.091-6.271,11.728l-13.194,19.627H157.119z"/>
		<path style="fill:none;stroke:#000000;stroke-width:3.2675;stroke-miterlimit:10;" d="M296.384,250.859
			c0,21.067-3.53,36.5-10.587,46.301c-7.058,9.8-17.864,14.699-32.413,14.699c-14.226,0-24.949-5.116-32.17-15.352
			c-7.222-10.233-10.832-25.451-10.832-45.649c0-21.175,3.529-36.702,10.587-46.585c7.057-9.881,17.863-14.822,32.414-14.822
			c14.171,0,24.88,5.145,32.128,15.433C292.761,215.175,296.384,230.499,296.384,250.859z M242.389,250.859
			c0,13.466,0.841,22.723,2.525,27.772c1.682,5.049,4.506,7.574,8.47,7.574c4.017,0,6.853-2.606,8.51-7.819
			c1.656-5.212,2.484-14.387,2.484-27.528c0-13.193-0.842-22.438-2.524-27.731c-1.684-5.294-4.508-7.94-8.47-7.94
			c-3.964,0-6.788,2.553-8.47,7.655C243.23,227.947,242.389,237.286,242.389,250.859z"/>
		<path style="fill:none;stroke:#000000;stroke-width:3.2675;stroke-miterlimit:10;" d="M397.454,287.183h-13.112v23.048H352.58
			v-23.048h-47.481v-23.619l49.517-72.402h29.727v71.995h13.112V287.183z M352.58,263.157v-13.845c0-2.606,0.094-6.12,0.285-10.547
			c0.189-4.424,0.338-6.746,0.448-6.963h-0.896c-1.846,4.181-3.938,8.091-6.271,11.728l-13.193,19.627H352.58z"/>
	</g>
	<text transform="matrix(1 0 0 1 190.3823 362.4004)" style="font-family:'OpenSans-Extrabold'; font-size:37.1855px;">ERROR</text>
	<g>
		
			<line style="fill:none;stroke:#000000;stroke-width:2.1628;stroke-linecap:round;stroke-linejoin:round;stroke-miterlimit:10;" x1="418.489" y1="215.1" x2="418.489" y2="204.061"/>
		
			<line style="fill:none;stroke:#000000;stroke-width:2.1628;stroke-linecap:round;stroke-linejoin:round;stroke-miterlimit:10;" x1="410.783" y1="218.292" x2="402.978" y2="210.486"/>
		
			<line style="fill:none;stroke:#000000;stroke-width:2.1628;stroke-linecap:round;stroke-linejoin:round;stroke-miterlimit:10;" x1="407.592" y1="225.998" x2="396.553" y2="225.998"/>
		
			<line style="fill:none;stroke:#000000;stroke-width:2.1628;stroke-linecap:round;stroke-linejoin:round;stroke-miterlimit:10;" x1="410.783" y1="233.703" x2="402.978" y2="241.509"/>
		
			<line style="fill:none;stroke:#000000;stroke-width:2.1628;stroke-linecap:round;stroke-linejoin:round;stroke-miterlimit:10;" x1="418.489" y1="236.895" x2="418.489" y2="247.934"/>
		
			<line style="fill:none;stroke:#000000;stroke-width:2.1628;stroke-linecap:round;stroke-linejoin:round;stroke-miterlimit:10;" x1="426.195" y1="233.703" x2="434.001" y2="241.509"/>
		
			<line style="fill:none;stroke:#000000;stroke-width:2.1628;stroke-linecap:round;stroke-linejoin:round;stroke-miterlimit:10;" x1="429.387" y1="225.998" x2="440.426" y2="225.998"/>
		
			<line style="fill:none;stroke:#000000;stroke-width:2.1628;stroke-linecap:round;stroke-linejoin:round;stroke-miterlimit:10;" x1="426.195" y1="218.292" x2="434.001" y2="210.486"/>
	</g>
	<g>
		
			<line style="fill:none;stroke:#000000;stroke-width:2.1628;stroke-linecap:round;stroke-linejoin:round;stroke-miterlimit:10;" x1="72.261" y1="270.066" x2="72.261" y2="262.087"/>
		
			<line style="fill:none;stroke:#000000;stroke-width:2.1628;stroke-linecap:round;stroke-linejoin:round;stroke-miterlimit:10;" x1="66.691" y1="272.374" x2="61.049" y2="266.732"/>
		
			<line style="fill:none;stroke:#000000;stroke-width:2.1628;stroke-linecap:round;stroke-linejoin:round;stroke-miterlimit:10;" x1="64.384" y1="277.944" x2="56.405" y2="277.944"/>
		
			<line style="fill:none;stroke:#000000;stroke-width:2.1628;stroke-linecap:round;stroke-linejoin:round;stroke-miterlimit:10;" x1="66.691" y1="283.514" x2="61.049" y2="289.156"/>
		
			<line style="fill:none;stroke:#000000;stroke-width:2.1628;stroke-linecap:round;stroke-linejoin:round;stroke-miterlimit:10;" x1="72.261" y1="285.821" x2="72.261" y2="293.8"/>
		
			<line style="fill:none;stroke:#000000;stroke-width:2.1628;stroke-linecap:round;stroke-linejoin:round;stroke-miterlimit:10;" x1="77.831" y1="283.514" x2="83.473" y2="289.156"/>
		
			<line style="fill:none;stroke:#000000;stroke-width:2.1628;stroke-linecap:round;stroke-linejoin:round;stroke-miterlimit:10;" x1="80.138" y1="277.944" x2="88.118" y2="277.944"/>
		
			<line style="fill:none;stroke:#000000;stroke-width:2.1628;stroke-linecap:round;stroke-linejoin:round;stroke-miterlimit:10;" x1="77.831" y1="272.374" x2="83.473" y2="266.732"/>
	</g>
	<g>
		
			<line style="fill:none;stroke:#000000;stroke-width:2.1628;stroke-linecap:round;stroke-linejoin:round;stroke-miterlimit:10;" x1="288.183" y1="105.254" x2="288.183" y2="97.274"/>
		
			<line style="fill:none;stroke:#000000;stroke-width:2.1628;stroke-linecap:round;stroke-linejoin:round;stroke-miterlimit:10;" x1="282.613" y1="107.561" x2="276.971" y2="101.919"/>
		
			<line style="fill:none;stroke:#000000;stroke-width:2.1628;stroke-linecap:round;stroke-linejoin:round;stroke-miterlimit:10;" x1="280.306" y1="113.131" x2="272.327" y2="113.131"/>
		
			<line style="fill:none;stroke:#000000;stroke-width:2.1628;stroke-linecap:round;stroke-linejoin:round;stroke-miterlimit:10;" x1="282.613" y1="118.701" x2="276.971" y2="124.343"/>
		
			<line style="fill:none;stroke:#000000;stroke-width:2.1628;stroke-linecap:round;stroke-linejoin:round;stroke-miterlimit:10;" x1="288.183" y1="121.008" x2="288.183" y2="128.987"/>
		
			<line style="fill:none;stroke:#000000;stroke-width:2.1628;stroke-linecap:round;stroke-linejoin:round;stroke-miterlimit:10;" x1="293.753" y1="118.701" x2="299.395" y2="124.343"/>
		
			<line style="fill:none;stroke:#000000;stroke-width:2.1628;stroke-linecap:round;stroke-linejoin:round;stroke-miterlimit:10;" x1="296.06" y1="113.131" x2="304.039" y2="113.131"/>
		
			<line style="fill:none;stroke:#000000;stroke-width:2.1628;stroke-linecap:round;stroke-linejoin:round;stroke-miterlimit:10;" x1="293.753" y1="107.561" x2="299.395" y2="101.919"/>
	</g>
	
		<rect x="111.874" y="326.894" style="fill:none;stroke:#000000;stroke-width:2.4187;stroke-linecap:round;stroke-linejoin:round;stroke-miterlimit:10;" width="273.761" height="43.098"/>
	<rect x="111.874" y="386.271" style="fill:none;" width="275.126" height="30.529"/>
	<text transform="matrix(1 0 0 1 154.4458 395.5498)" style="font-family:'MyriadPro-Regular'; font-size:13.07px;">The requested page does not exist.</text>
	
		<polyline style="fill:none;stroke:#000000;stroke-width:2.1628;stroke-linecap:round;stroke-linejoin:round;stroke-miterlimit:10;" points="
		133.208,172.198 133.208,137.669 312.701,137.669 312.701,214.389 	"/>
	
		<polyline style="fill:none;stroke:#000000;stroke-width:2.1628;stroke-linecap:round;stroke-linejoin:round;stroke-miterlimit:10;" points="
		249.436,113.131 249.436,156.361 368.464,156.361 368.464,176.029 	"/>
	<path style="fill:none;stroke:#000000;stroke-width:2.1628;stroke-linecap:round;stroke-linejoin:round;stroke-miterlimit:10;" d="
		M137.491,176.481c0,2.366-1.918,4.283-4.283,4.283c-2.366,0-4.283-1.918-4.283-4.283c0-2.365,1.918-4.283,4.283-4.283
		C135.574,172.198,137.491,174.115,137.491,176.481z"/>
	
		<circle style="fill:none;stroke:#000000;stroke-width:2.1628;stroke-linecap:round;stroke-linejoin:round;stroke-miterlimit:10;" cx="249.436" cy="108.848" r="4.283"/>
	<path style="fill:none;stroke:#000000;stroke-width:2.1628;stroke-linecap:round;stroke-linejoin:round;stroke-miterlimit:10;" d="
		M372.747,180.764c0,2.365-1.918,4.283-4.283,4.283c-2.366,0-4.283-1.918-4.283-4.283c0-2.366,1.918-4.283,4.283-4.283
		C370.829,176.481,372.747,178.399,372.747,180.764z"/>
	<path style="fill:none;stroke:#000000;stroke-width:2.1628;stroke-linecap:round;stroke-linejoin:round;stroke-miterlimit:10;" d="
		M316.984,219.383c0,2.365-1.918,4.283-4.283,4.283s-4.283-1.918-4.283-4.283c0-2.366,1.918-4.283,4.283-4.283
		S316.984,217.018,316.984,219.383z"/>
	<g>
		
			<line style="fill:none;stroke:#000000;stroke-width:2.1628;stroke-linecap:round;stroke-linejoin:round;stroke-miterlimit:10;" x1="105.295" y1="305.164" x2="95.161" y2="315.298"/>
		
			<line style="fill:none;stroke:#000000;stroke-width:2.1628;stroke-linecap:round;stroke-linejoin:round;stroke-miterlimit:10;" x1="95.161" y1="305.164" x2="105.295" y2="315.298"/>
	</g>
	<g>
		
			<line style="fill:none;stroke:#000000;stroke-width:2.1628;stroke-linecap:round;stroke-linejoin:round;stroke-miterlimit:10;" x1="110.362" y1="158" x2="100.228" y2="168.135"/>
		
			<line style="fill:none;stroke:#000000;stroke-width:2.1628;stroke-linecap:round;stroke-linejoin:round;stroke-miterlimit:10;" x1="100.228" y1="158" x2="110.362" y2="168.135"/>
	</g>
	<g>
		
			<line style="fill:none;stroke:#000000;stroke-width:2.1628;stroke-linecap:round;stroke-linejoin:round;stroke-miterlimit:10;" x1="439.068" y1="272.876" x2="428.933" y2="283.011"/>
		
			<line style="fill:none;stroke:#000000;stroke-width:2.1628;stroke-linecap:round;stroke-linejoin:round;stroke-miterlimit:10;" x1="428.933" y1="272.876" x2="439.068" y2="283.011"/>
	</g>
	<path style="fill:none;stroke:#000000;stroke-width:2.2614;stroke-linecap:round;stroke-linejoin:round;stroke-miterlimit:10;" d="
		M151.47,100.161c-3.232,0-6.19,1.163-8.487,3.089c-2.346-7.062-8.994-12.16-16.843-12.16c-8.787,0-16.065,6.389-17.487,14.771
		c-0.926-0.265-1.901-0.416-2.913-0.416c-5.843,0-10.579,4.737-10.579,10.579c0,5.375,4.012,9.803,9.202,10.48v0.1h47.107
		c7.302,0,13.222-5.919,13.222-13.222C164.692,106.081,158.772,100.161,151.47,100.161z"/>
	<path style="fill:none;stroke:#000000;stroke-width:2.1628;stroke-linecap:round;stroke-linejoin:round;stroke-miterlimit:10;" d="
		M396.605,167.417c2.348,0,4.497,0.845,6.166,2.244c1.704-5.13,6.534-8.834,12.236-8.834c6.384,0,11.671,4.642,12.704,10.731
		c0.673-0.193,1.381-0.302,2.116-0.302c4.245,0,7.686,3.441,7.686,7.686c0,3.905-2.914,7.122-6.685,7.613v0.072h-34.222
		c-5.305,0-9.605-4.301-9.605-9.605S391.3,167.417,396.605,167.417z"/>
	<path style="fill:none;stroke:#000000;stroke-width:2.1628;stroke-linecap:round;stroke-linejoin:round;stroke-miterlimit:10;" d="
		M443.789,349.113c-1.969,0-3.771,0.709-5.171,1.882c-1.429-4.302-5.48-7.409-10.262-7.409c-5.354,0-9.788,3.893-10.654,9
		c-0.564-0.161-1.158-0.253-1.775-0.253c-3.56,0-6.446,2.886-6.446,6.446c0,3.275,2.444,5.973,5.607,6.385v0.061h28.7
		c4.449,0,8.056-3.606,8.056-8.055C451.844,352.72,448.238,349.113,443.789,349.113z"/>
	<path style="fill:none;stroke:#000000;stroke-width:2.1628;stroke-linecap:round;stroke-linejoin:round;stroke-miterlimit:10;" d="
		M54.253,332.114c2.348,0,4.497,0.845,6.166,2.244c1.704-5.13,6.534-8.834,12.236-8.834c6.384,0,11.671,4.642,12.704,10.731
		c0.673-0.193,1.381-0.302,2.116-0.302c4.245,0,7.686,3.441,7.686,7.686c0,3.905-2.914,7.122-6.685,7.613v0.072H54.253
		c-5.305,0-9.605-4.3-9.605-9.605C44.648,336.414,48.948,332.114,54.253,332.114z"/>
	
		<path style="fill:none;stroke:#000000;stroke-width:2.1628;stroke-linecap:round;stroke-linejoin:round;stroke-miterlimit:10;stroke-dasharray:3.2675,7.6242;" d="
		M164.692,93.818c0,0,60.44-49.277,142.56-26.575C393.515,91.09,410.783,152.6,410.783,152.6"/>
	
		<path style="fill:none;stroke:#000000;stroke-width:2.0166;stroke-linecap:round;stroke-linejoin:round;stroke-miterlimit:10;stroke-dasharray:3.0467,7.1089;" d="
		M73.433,237.04c-23.431,3.634-35.21,53.363-8.854,73.104"/>
	
		<path style="fill:none;stroke:#000000;stroke-width:2.1628;stroke-linecap:round;stroke-linejoin:round;stroke-miterlimit:10;stroke-dasharray:3.2675,7.6242;" d="
		M368.464,380.526c0,0,40.138,17.546,57.732-6.933"/>
	
		<line style="fill:none;stroke:#000000;stroke-width:2.1628;stroke-linecap:round;stroke-linejoin:round;stroke-miterlimit:10;" x1="177.513" y1="180.764" x2="177.513" y2="155.418"/>
	
		<line style="fill:none;stroke:#000000;stroke-width:2.1628;stroke-linecap:round;stroke-linejoin:round;stroke-miterlimit:10;" x1="171.395" y1="180.764" x2="171.395" y2="168.135"/>
	
		<line style="fill:none;stroke:#000000;stroke-width:2.1628;stroke-linecap:round;stroke-linejoin:round;stroke-miterlimit:10;" x1="270.67" y1="186.628" x2="270.67" y2="168.091"/>
	
		<line style="fill:none;stroke:#000000;stroke-width:2.1628;stroke-linecap:round;stroke-linejoin:round;stroke-miterlimit:10;" x1="263.72" y1="185.047" x2="263.72" y2="177.359"/>
	
		<line style="fill:none;stroke:#000000;stroke-width:2.1628;stroke-linecap:round;stroke-linejoin:round;stroke-miterlimit:10;" x1="257.554" y1="185.047" x2="257.554" y2="172.198"/>
	
		<line style="fill:none;stroke:#000000;stroke-width:2.1628;stroke-linecap:round;stroke-linejoin:round;stroke-miterlimit:10;" x1="183.394" y1="180.764" x2="183.394" y2="168.091"/>
	
		<line style="fill:none;stroke:#000000;stroke-width:2.1628;stroke-linecap:round;stroke-linejoin:round;stroke-miterlimit:10;" x1="351.395" y1="184.292" x2="351.395" y2="178.622"/>
	
		<line style="fill:none;stroke:#000000;stroke-width:2.1628;stroke-linecap:round;stroke-linejoin:round;stroke-miterlimit:10;" x1="345.277" y1="184.292" x2="345.277" y2="170.482"/>
	
		<line style="fill:none;stroke:#000000;stroke-width:2.1628;stroke-linecap:round;stroke-linejoin:round;stroke-miterlimit:10;" x1="357.276" y1="184.292" x2="357.276" y2="174.428"/>
</g>
<g id="DESIGNED_BY_FREEPIK">
	<g>
		<g id="XMLID_456_">
			<g id="XMLID_493_">
				<path id="XMLID_514_" d="M181.087,469.746c-0.246,0-0.435,0.085-0.567,0.255c-0.133,0.17-0.199,0.422-0.199,0.754v2.392
					c-0.304-0.331-0.617-0.578-0.937-0.739c-0.321-0.159-0.715-0.239-1.182-0.239c-0.807,0-1.458,0.283-1.953,0.848
					c-0.494,0.566-0.742,1.356-0.742,2.369c0,0.479,0.063,0.924,0.188,1.335c0.124,0.412,0.307,0.77,0.549,1.074
					c0.241,0.305,0.526,0.54,0.857,0.704c0.33,0.164,0.689,0.246,1.078,0.246c0.293,0,0.563-0.04,0.809-0.122
					c0.247-0.081,0.477-0.2,0.689-0.356c0.212-0.156,0.427-0.359,0.644-0.608v0.161c0,0.296,0.072,0.524,0.217,0.685
					c0.145,0.161,0.328,0.241,0.549,0.241c0.226,0,0.409-0.078,0.552-0.232c0.143-0.154,0.213-0.386,0.213-0.694v-7.146
					c0-0.306-0.066-0.534-0.199-0.691C181.521,469.824,181.332,469.746,181.087,469.746z M180.021,476.587
					c-0.141,0.306-0.329,0.533-0.564,0.682c-0.236,0.149-0.496,0.224-0.781,0.224c-0.281,0-0.54-0.079-0.778-0.236
					c-0.237-0.155-0.424-0.388-0.561-0.696c-0.136-0.309-0.205-0.683-0.205-1.122c0-0.415,0.064-0.78,0.193-1.095
					c0.128-0.315,0.31-0.556,0.543-0.724c0.233-0.168,0.499-0.253,0.795-0.253c0.285,0,0.547,0.082,0.787,0.246
					c0.239,0.165,0.429,0.402,0.569,0.712c0.141,0.311,0.21,0.683,0.21,1.113C180.232,475.897,180.163,476.279,180.021,476.587z"/>
				<path id="XMLID_511_" d="M188.452,475.667c0.233-0.122,0.35-0.385,0.35-0.793c0-0.439-0.113-0.871-0.338-1.294
					c-0.225-0.423-0.564-0.77-1.019-1.035c-0.453-0.268-0.996-0.4-1.628-0.4c-0.487,0-0.93,0.077-1.33,0.233
					c-0.4,0.157-0.737,0.381-1.009,0.674c-0.273,0.293-0.48,0.645-0.623,1.054c-0.143,0.409-0.214,0.854-0.214,1.332
					c0,1.018,0.289,1.822,0.867,2.416c0.577,0.593,1.387,0.891,2.427,0.891c0.456,0,0.858-0.06,1.207-0.179
					c0.352-0.119,0.641-0.269,0.874-0.448c0.231-0.18,0.404-0.367,0.519-0.563c0.115-0.196,0.172-0.367,0.172-0.514
					c0-0.166-0.052-0.294-0.155-0.386c-0.103-0.091-0.237-0.137-0.403-0.137c-0.154,0-0.273,0.035-0.356,0.107
					c-0.202,0.19-0.366,0.34-0.492,0.452c-0.126,0.11-0.265,0.215-0.415,0.311c-0.15,0.098-0.305,0.167-0.466,0.214
					c-0.16,0.045-0.337,0.067-0.531,0.067c-0.289,0-0.553-0.07-0.792-0.213c-0.239-0.143-0.432-0.353-0.576-0.636
					c-0.145-0.281-0.219-0.604-0.222-0.973h3.168C187.89,475.848,188.219,475.787,188.452,475.667z M184.297,474.928
					c0.056-0.546,0.212-0.959,0.472-1.238c0.259-0.279,0.59-0.418,0.994-0.418c0.423,0,0.764,0.138,1.024,0.412
					c0.259,0.275,0.409,0.69,0.448,1.244H184.297z"/>
				<path id="XMLID_510_" d="M193.878,475.229c-0.319-0.169-0.729-0.315-1.231-0.439c-0.424-0.103-0.756-0.19-0.997-0.261
					c-0.242-0.07-0.434-0.16-0.576-0.27c-0.143-0.108-0.213-0.248-0.213-0.419c0-0.186,0.097-0.341,0.291-0.465
					c0.194-0.126,0.437-0.188,0.73-0.188c0.286,0,0.511,0.047,0.677,0.143c0.166,0.095,0.31,0.222,0.433,0.38
					c0.151,0.189,0.284,0.332,0.401,0.427c0.116,0.095,0.258,0.144,0.424,0.144c0.23,0,0.408-0.061,0.532-0.179
					c0.124-0.119,0.186-0.272,0.186-0.457c0-0.171-0.058-0.345-0.175-0.522c-0.116-0.178-0.286-0.34-0.51-0.486
					c-0.223-0.147-0.502-0.264-0.837-0.35c-0.333-0.088-0.71-0.132-1.13-0.132c-0.535,0-0.99,0.086-1.367,0.259
					c-0.378,0.173-0.665,0.403-0.858,0.691c-0.194,0.289-0.291,0.596-0.291,0.92c0,0.363,0.105,0.671,0.315,0.92
					c0.21,0.249,0.489,0.45,0.84,0.602c0.35,0.153,0.804,0.299,1.362,0.437c0.494,0.119,0.849,0.244,1.065,0.374
					c0.216,0.132,0.323,0.338,0.323,0.623c0,0.186-0.104,0.351-0.311,0.496c-0.208,0.145-0.474,0.216-0.798,0.216
					c-0.4,0-0.715-0.07-0.947-0.213c-0.232-0.142-0.431-0.357-0.597-0.647c-0.082-0.149-0.169-0.267-0.261-0.35
					c-0.091-0.083-0.221-0.125-0.39-0.125c-0.194,0-0.355,0.064-0.481,0.19c-0.128,0.127-0.19,0.278-0.19,0.457
					c0,0.27,0.099,0.537,0.296,0.805c0.198,0.266,0.505,0.489,0.92,0.667c0.415,0.178,0.914,0.268,1.495,0.268
					c0.609,0,1.127-0.082,1.552-0.246c0.425-0.164,0.747-0.406,0.964-0.725c0.218-0.318,0.327-0.702,0.327-1.149
					c0-0.296-0.082-0.56-0.246-0.791C194.438,475.601,194.197,475.4,193.878,475.229z"/>
				<path id="XMLID_509_" d="M196.486,472.155c-0.238,0-0.431,0.081-0.579,0.244c-0.149,0.162-0.222,0.403-0.222,0.724v4.635
					c0,0.317,0.073,0.56,0.222,0.73c0.148,0.171,0.341,0.256,0.579,0.256c0.238,0,0.433-0.083,0.588-0.249
					c0.154-0.166,0.232-0.412,0.232-0.737v-4.682c0-0.289-0.078-0.515-0.232-0.677C196.919,472.236,196.724,472.155,196.486,472.155
					z"/>
				<path id="XMLID_508_" d="M196.504,469.817c-0.217,0-0.409,0.073-0.573,0.223c-0.165,0.148-0.246,0.337-0.246,0.566
					c0,0.254,0.08,0.45,0.24,0.588c0.16,0.139,0.353,0.208,0.579,0.208c0.217,0,0.405-0.07,0.564-0.211
					c0.158-0.141,0.238-0.335,0.238-0.585c0-0.257-0.081-0.452-0.244-0.587C196.9,469.884,196.714,469.817,196.504,469.817z"/>
				<path id="XMLID_505_" d="M203.626,472.155c-0.217,0-0.396,0.078-0.535,0.232c-0.139,0.155-0.208,0.372-0.208,0.653v0.22
					c-0.289-0.376-0.602-0.651-0.938-0.828c-0.336-0.176-0.734-0.264-1.193-0.264c-0.384,0-0.736,0.068-1.056,0.203
					c-0.321,0.138-0.604,0.341-0.849,0.609c-0.245,0.269-0.433,0.6-0.566,0.992c-0.133,0.391-0.199,0.83-0.199,1.317
					c0,0.652,0.108,1.228,0.327,1.727c0.217,0.499,0.529,0.886,0.934,1.163c0.406,0.277,0.88,0.416,1.422,0.416
					c0.45,0,0.84-0.091,1.166-0.273c0.327-0.182,0.615-0.447,0.864-0.796c-0.008,0.531-0.02,0.915-0.036,1.155
					c-0.016,0.239-0.07,0.464-0.164,0.673c-0.093,0.21-0.255,0.373-0.486,0.49c-0.231,0.117-0.557,0.175-0.977,0.175
					c-0.205,0-0.387-0.02-0.545-0.056c-0.159-0.038-0.294-0.096-0.406-0.172c-0.112-0.078-0.216-0.17-0.309-0.279
					c-0.093-0.108-0.183-0.218-0.27-0.324c-0.178-0.209-0.386-0.314-0.624-0.314c-0.189,0-0.352,0.063-0.486,0.188
					c-0.135,0.124-0.202,0.285-0.202,0.482c0,0.262,0.119,0.517,0.357,0.764c0.238,0.247,0.576,0.448,1.014,0.605
					c0.439,0.156,0.938,0.234,1.496,0.234c0.609,0,1.119-0.061,1.528-0.185c0.409-0.122,0.741-0.31,0.994-0.563
					c0.253-0.254,0.438-0.574,0.551-0.961c0.115-0.389,0.173-0.851,0.173-1.39v-4.706c0-0.384-0.051-0.678-0.155-0.882
					C204.146,472.258,203.938,472.155,203.626,472.155z M202.6,476.522c-0.151,0.29-0.346,0.508-0.586,0.652
					c-0.239,0.145-0.493,0.217-0.762,0.217c-0.455,0-0.826-0.168-1.113-0.505c-0.287-0.336-0.43-0.833-0.43-1.489
					c0-0.648,0.139-1.15,0.418-1.502c0.279-0.352,0.649-0.528,1.113-0.528c0.475,0,0.857,0.185,1.148,0.553
					c0.291,0.367,0.436,0.883,0.436,1.543C202.825,475.877,202.749,476.23,202.6,476.522z"/>
				<path id="XMLID_504_" d="M210.978,473.224c-0.165-0.34-0.417-0.603-0.753-0.789c-0.337-0.185-0.718-0.279-1.146-0.279
					c-0.44,0-0.828,0.088-1.166,0.265c-0.339,0.176-0.651,0.452-0.935,0.828v-0.196c0-0.193-0.034-0.358-0.104-0.493
					c-0.07-0.133-0.162-0.234-0.276-0.302c-0.115-0.067-0.244-0.102-0.387-0.102c-0.233,0-0.417,0.076-0.552,0.228
					c-0.134,0.152-0.201,0.383-0.201,0.692v4.682c0,0.317,0.076,0.56,0.226,0.73c0.15,0.171,0.342,0.256,0.576,0.256
					c0.241,0,0.438-0.082,0.59-0.246c0.152-0.164,0.228-0.411,0.228-0.74v-2.029c0-0.661,0.04-1.111,0.119-1.353
					c0.11-0.301,0.284-0.537,0.522-0.71c0.237-0.173,0.5-0.258,0.788-0.258c0.444,0,0.74,0.142,0.888,0.424
					c0.148,0.283,0.223,0.692,0.223,1.226v2.7c0,0.317,0.074,0.56,0.226,0.73c0.15,0.171,0.346,0.256,0.587,0.256
					c0.238,0,0.431-0.083,0.579-0.249c0.148-0.166,0.223-0.412,0.223-0.737v-3.015c0-0.356-0.017-0.648-0.048-0.878
					C211.155,473.636,211.085,473.422,210.978,473.224z"/>
				<path id="XMLID_501_" d="M217.821,475.667c0.233-0.122,0.35-0.385,0.35-0.793c0-0.439-0.113-0.871-0.338-1.294
					c-0.226-0.423-0.565-0.77-1.019-1.035c-0.453-0.268-0.996-0.4-1.628-0.4c-0.487,0-0.93,0.077-1.33,0.233
					c-0.399,0.157-0.736,0.381-1.009,0.674c-0.274,0.293-0.481,0.645-0.624,1.054c-0.142,0.409-0.213,0.854-0.213,1.332
					c0,1.018,0.289,1.822,0.866,2.416c0.578,0.593,1.387,0.891,2.428,0.891c0.455,0,0.858-0.06,1.208-0.179
					c0.351-0.119,0.64-0.269,0.872-0.448c0.232-0.18,0.405-0.367,0.52-0.563s0.172-0.367,0.172-0.514
					c0-0.166-0.051-0.294-0.154-0.386c-0.103-0.091-0.238-0.137-0.404-0.137c-0.154,0-0.273,0.035-0.357,0.107
					c-0.201,0.19-0.366,0.34-0.492,0.452c-0.128,0.11-0.266,0.215-0.415,0.311c-0.151,0.098-0.307,0.167-0.466,0.214
					c-0.161,0.045-0.338,0.067-0.532,0.067c-0.288,0-0.553-0.07-0.792-0.213c-0.239-0.143-0.431-0.353-0.576-0.636
					c-0.145-0.281-0.218-0.604-0.223-0.973h3.169C217.26,475.848,217.588,475.787,217.821,475.667z M213.666,474.928
					c0.056-0.546,0.212-0.959,0.471-1.238c0.259-0.279,0.591-0.418,0.995-0.418c0.424,0,0.765,0.138,1.024,0.412
					c0.259,0.275,0.409,0.69,0.448,1.244H213.666z"/>
				<path id="XMLID_498_" d="M224.206,469.746c-0.245,0-0.434,0.085-0.567,0.255c-0.132,0.17-0.199,0.422-0.199,0.754v2.392
					c-0.304-0.331-0.617-0.578-0.938-0.739c-0.32-0.159-0.714-0.239-1.181-0.239c-0.808,0-1.458,0.283-1.953,0.848
					c-0.495,0.566-0.741,1.356-0.741,2.369c0,0.479,0.062,0.924,0.187,1.335c0.124,0.412,0.308,0.77,0.549,1.074
					c0.241,0.305,0.527,0.54,0.857,0.704c0.33,0.164,0.689,0.246,1.077,0.246c0.293,0,0.563-0.04,0.811-0.122
					c0.247-0.081,0.476-0.2,0.688-0.356c0.211-0.156,0.426-0.359,0.644-0.608v0.161c0,0.296,0.072,0.524,0.217,0.685
					c0.145,0.161,0.328,0.241,0.549,0.241c0.226,0,0.41-0.078,0.552-0.232c0.143-0.154,0.213-0.386,0.213-0.694v-7.146
					c0-0.306-0.065-0.534-0.199-0.691C224.641,469.824,224.452,469.746,224.206,469.746z M223.141,476.587
					c-0.14,0.306-0.328,0.533-0.564,0.682c-0.235,0.149-0.495,0.224-0.781,0.224c-0.281,0-0.54-0.079-0.776-0.236
					c-0.238-0.155-0.425-0.388-0.562-0.696c-0.137-0.309-0.205-0.683-0.205-1.122c0-0.415,0.064-0.78,0.193-1.095
					c0.129-0.315,0.31-0.556,0.543-0.724c0.233-0.168,0.5-0.253,0.795-0.253c0.285,0,0.547,0.082,0.787,0.246
					c0.239,0.165,0.43,0.402,0.57,0.712c0.141,0.311,0.21,0.683,0.21,1.113C223.352,475.897,223.282,476.279,223.141,476.587z"/>
				<path id="XMLID_495_" d="M233.586,472.55c-0.406-0.255-0.877-0.382-1.415-0.382c-0.467,0-0.859,0.084-1.175,0.252
					c-0.317,0.168-0.627,0.41-0.932,0.727v-2.475c0-0.297-0.068-0.524-0.202-0.686c-0.135-0.16-0.326-0.24-0.576-0.24
					c-0.237,0-0.423,0.084-0.555,0.252c-0.133,0.168-0.198,0.417-0.198,0.745v7.075c0,0.304,0.068,0.535,0.205,0.691
					c0.136,0.156,0.319,0.234,0.549,0.234c0.226,0,0.412-0.078,0.558-0.234c0.146-0.156,0.22-0.388,0.22-0.691v-0.161
					c0.178,0.205,0.322,0.361,0.43,0.463c0.109,0.103,0.241,0.204,0.395,0.3c0.154,0.098,0.341,0.176,0.561,0.234
					c0.22,0.06,0.454,0.09,0.704,0.09c0.407,0,0.781-0.082,1.119-0.246c0.338-0.164,0.626-0.398,0.864-0.698
					c0.237-0.301,0.418-0.656,0.543-1.065c0.124-0.41,0.187-0.858,0.187-1.35c0-0.665-0.112-1.24-0.336-1.725
					C234.305,473.176,233.991,472.806,233.586,472.55z M232.796,476.961c-0.295,0.354-0.646,0.531-1.053,0.531
					c-0.479,0-0.866-0.174-1.161-0.52c-0.295-0.346-0.442-0.841-0.442-1.486c0-0.439,0.069-0.818,0.208-1.137
					c0.139-0.318,0.328-0.561,0.57-0.729c0.24-0.168,0.516-0.253,0.825-0.253c0.3,0,0.564,0.085,0.79,0.253
					c0.225,0.168,0.399,0.406,0.521,0.715c0.123,0.309,0.184,0.677,0.184,1.104C233.238,476.099,233.09,476.607,232.796,476.961z"/>
				<path id="XMLID_494_" d="M240.529,472.254c-0.112-0.066-0.23-0.099-0.353-0.099c-0.171,0-0.302,0.03-0.395,0.09
					c-0.093,0.059-0.181,0.174-0.264,0.344c-0.083,0.17-0.176,0.406-0.279,0.706l-1.3,3.71l-1.372-3.989
					c-0.091-0.276-0.195-0.489-0.314-0.638c-0.119-0.147-0.295-0.223-0.528-0.223c-0.135,0-0.265,0.036-0.389,0.107
					c-0.124,0.071-0.222,0.166-0.294,0.285c-0.071,0.118-0.107,0.246-0.107,0.385c0,0.131,0.062,0.342,0.185,0.629l1.994,5.021
					l-0.148,0.362c-0.111,0.266-0.209,0.466-0.294,0.602c-0.085,0.138-0.181,0.233-0.288,0.288c-0.106,0.057-0.254,0.084-0.44,0.084
					c-0.074,0-0.163-0.012-0.266-0.035c-0.083-0.024-0.168-0.037-0.256-0.037c-0.221,0-0.388,0.052-0.5,0.152
					c-0.113,0.101-0.169,0.245-0.169,0.43c0,0.273,0.119,0.461,0.356,0.565c0.237,0.102,0.593,0.153,1.068,0.153
					c0.487,0,0.873-0.074,1.161-0.223c0.287-0.147,0.517-0.361,0.691-0.639c0.174-0.277,0.353-0.658,0.535-1.145l2.113-5.532
					c0.051-0.142,0.095-0.283,0.13-0.421c0.037-0.139,0.061-0.246,0.078-0.32c0-0.123-0.032-0.239-0.093-0.351
					C240.729,472.407,240.642,472.319,240.529,472.254z"/>
			</g>
			<g id="XMLID_457_">
				<g id="XMLID_472_">
					<path id="XMLID_492_" d="M262.93,469.741c-0.533,0-0.954,0.069-1.26,0.205c-0.308,0.137-0.527,0.354-0.654,0.652
						c-0.13,0.301-0.191,0.702-0.191,1.21v0.487h-0.387c-0.543,0-0.815,0.192-0.815,0.582c0,0.174,0.066,0.316,0.196,0.424
						c0.132,0.111,0.315,0.163,0.559,0.163h0.446v4.294c0,0.319,0.074,0.563,0.228,0.73c0.154,0.171,0.344,0.254,0.573,0.254
						c0.243,0,0.439-0.083,0.589-0.254c0.155-0.167,0.23-0.41,0.23-0.73v-4.294h0.395c0.291,0,0.517-0.035,0.681-0.107
						c0.166-0.07,0.245-0.24,0.245-0.502c0-0.374-0.307-0.56-0.926-0.56h-0.395v-0.386c0-0.322,0.043-0.568,0.122-0.74
						c0.087-0.171,0.273-0.259,0.565-0.259c0.107,0,0.241,0.014,0.39,0.033c0.155,0.026,0.268,0.038,0.33,0.038
						c0.134,0,0.252-0.054,0.348-0.159c0.101-0.107,0.15-0.236,0.15-0.385C264.35,469.972,263.879,469.741,262.93,469.741z"/>
					<path id="XMLID_491_" d="M268.089,472.407c-0.32-0.171-0.647-0.255-0.99-0.255c-0.342,0-0.61,0.084-0.818,0.255
						c-0.202,0.171-0.4,0.422-0.593,0.755c-0.014-0.333-0.08-0.584-0.198-0.755c-0.119-0.171-0.313-0.255-0.583-0.255
						c-0.525,0-0.788,0.364-0.788,1.093v4.514c0,0.323,0.078,0.568,0.226,0.733c0.149,0.169,0.34,0.25,0.579,0.25
						c0.236,0,0.432-0.08,0.586-0.246c0.15-0.163,0.233-0.41,0.233-0.737v-1.354c0-0.486,0.014-0.899,0.045-1.239
						c0.033-0.336,0.089-0.63,0.17-0.877c0.084-0.243,0.201-0.426,0.353-0.554c0.149-0.122,0.345-0.186,0.582-0.186
						c0.172,0,0.374,0.037,0.602,0.108c0.227,0.073,0.371,0.112,0.433,0.112c0.158,0,0.305-0.064,0.441-0.195
						c0.135-0.125,0.204-0.291,0.204-0.487C268.571,472.806,268.411,472.578,268.089,472.407z"/>
					<path id="XMLID_488_" d="M274.176,475.665c0.232-0.122,0.351-0.386,0.351-0.791c0-0.441-0.112-0.871-0.339-1.296
						c-0.222-0.424-0.565-0.77-1.018-1.034c-0.453-0.27-0.997-0.403-1.629-0.403c-0.488,0-0.931,0.078-1.329,0.233
						c-0.401,0.156-0.735,0.38-1.008,0.674c-0.276,0.295-0.484,0.644-0.624,1.055c-0.145,0.41-0.218,0.855-0.218,1.334
						c0,1.017,0.292,1.822,0.87,2.417c0.576,0.594,1.385,0.889,2.429,0.889c0.453,0,0.857-0.059,1.207-0.179
						c0.349-0.116,0.64-0.268,0.874-0.446c0.232-0.182,0.404-0.367,0.522-0.566c0.111-0.194,0.167-0.364,0.167-0.512
						c0-0.166-0.048-0.293-0.152-0.386c-0.104-0.092-0.237-0.139-0.405-0.139c-0.152,0-0.271,0.038-0.355,0.109
						c-0.202,0.188-0.367,0.34-0.493,0.449c-0.128,0.113-0.264,0.217-0.415,0.311c-0.15,0.098-0.308,0.17-0.466,0.214
						c-0.16,0.048-0.336,0.068-0.531,0.068c-0.29,0-0.552-0.069-0.792-0.212c-0.241-0.145-0.432-0.355-0.578-0.635
						c-0.145-0.281-0.216-0.607-0.222-0.974h3.171C273.615,475.847,273.942,475.786,274.176,475.665z M270.021,474.925
						c0.055-0.546,0.213-0.957,0.472-1.236c0.26-0.28,0.592-0.417,0.995-0.417c0.426,0,0.764,0.136,1.024,0.412
						c0.261,0.272,0.407,0.689,0.446,1.241H270.021z"/>
					<path id="XMLID_485_" d="M280.916,475.665c0.232-0.122,0.352-0.386,0.352-0.791c0-0.441-0.116-0.871-0.341-1.296
						c-0.223-0.424-0.564-0.77-1.013-1.034c-0.46-0.27-1.003-0.403-1.634-0.403c-0.486,0-0.932,0.078-1.33,0.233
						c-0.4,0.156-0.736,0.38-1.009,0.674c-0.273,0.295-0.48,0.644-0.622,1.055c-0.145,0.41-0.217,0.855-0.217,1.334
						c0,1.017,0.29,1.822,0.867,2.417c0.58,0.594,1.387,0.889,2.43,0.889c0.453,0,0.859-0.059,1.208-0.179
						c0.347-0.116,0.641-0.268,0.872-0.446c0.234-0.182,0.408-0.367,0.518-0.566c0.116-0.194,0.171-0.364,0.171-0.512
						c0-0.166-0.047-0.293-0.15-0.386c-0.104-0.092-0.238-0.139-0.406-0.139c-0.151,0-0.271,0.038-0.355,0.109
						c-0.202,0.188-0.367,0.34-0.492,0.449c-0.128,0.113-0.264,0.217-0.415,0.311c-0.152,0.098-0.307,0.17-0.469,0.214
						c-0.157,0.048-0.335,0.068-0.527,0.068c-0.291,0-0.556-0.069-0.795-0.212c-0.238-0.145-0.431-0.355-0.575-0.635
						c-0.144-0.281-0.218-0.607-0.222-0.974h3.17C280.354,475.847,280.682,475.786,280.916,475.665z M276.762,474.925
						c0.053-0.546,0.211-0.957,0.47-1.236c0.26-0.28,0.592-0.417,0.995-0.417c0.425,0,0.764,0.136,1.026,0.412
						c0.257,0.272,0.407,0.689,0.446,1.241H276.762z"/>
					<path id="XMLID_482_" d="M286.927,472.55c-0.42-0.257-0.883-0.386-1.38-0.386c-0.414,0-0.789,0.089-1.113,0.267
						c-0.331,0.177-0.648,0.452-0.952,0.827v-0.194c0-0.296-0.071-0.518-0.218-0.678c-0.144-0.155-0.329-0.233-0.561-0.233
						c-0.232,0-0.418,0.078-0.553,0.228c-0.133,0.155-0.2,0.382-0.2,0.692v6.994c0,0.354,0.052,0.62,0.146,0.807
						c0.102,0.184,0.301,0.274,0.606,0.274c0.518,0,0.778-0.358,0.778-1.068v-2.433c0.286,0.358,0.586,0.634,0.9,0.816
						c0.313,0.187,0.704,0.279,1.165,0.279c0.386,0,0.742-0.076,1.08-0.227c0.334-0.152,0.622-0.372,0.868-0.653
						c0.245-0.283,0.44-0.633,0.58-1.05c0.14-0.419,0.21-0.878,0.21-1.376c0-0.677-0.122-1.261-0.366-1.758
						C287.675,473.185,287.346,472.809,286.927,472.55z M286.45,476.553c-0.137,0.313-0.32,0.547-0.552,0.704
						c-0.23,0.154-0.48,0.232-0.748,0.232c-0.454,0-0.828-0.179-1.133-0.536c-0.307-0.358-0.459-0.862-0.459-1.504
						c0-0.686,0.154-1.204,0.461-1.558c0.307-0.35,0.685-0.527,1.131-0.527c0.281,0,0.54,0.084,0.77,0.248
						c0.229,0.163,0.411,0.397,0.542,0.705c0.13,0.306,0.196,0.673,0.196,1.101C286.658,475.861,286.588,476.239,286.45,476.553z"/>
					<path id="XMLID_481_" d="M289.9,472.152c-0.238,0-0.428,0.079-0.58,0.245c-0.145,0.162-0.222,0.402-0.222,0.721v4.642
						c0,0.314,0.076,0.556,0.222,0.729c0.152,0.171,0.342,0.254,0.58,0.254c0.237,0,0.432-0.081,0.588-0.25
						c0.154-0.165,0.231-0.41,0.231-0.732v-4.688c0-0.287-0.077-0.513-0.231-0.675C290.332,472.232,290.138,472.152,289.9,472.152z"
						/>
					<path id="XMLID_480_" d="M289.917,469.813c-0.217,0-0.407,0.076-0.571,0.223c-0.166,0.149-0.247,0.339-0.247,0.567
						c0,0.254,0.08,0.447,0.242,0.586c0.158,0.139,0.35,0.209,0.576,0.209c0.22,0,0.408-0.07,0.566-0.209
						c0.157-0.141,0.236-0.335,0.236-0.586c0-0.256-0.082-0.453-0.244-0.59C290.314,469.879,290.13,469.813,289.917,469.813z"/>
					<path id="XMLID_479_" d="M297.258,477.182l-1.662-2.613l0.86-0.789c0.438-0.396,0.659-0.714,0.659-0.95
						c0-0.192-0.068-0.354-0.2-0.483c-0.138-0.129-0.306-0.193-0.509-0.193c-0.169,0-0.313,0.044-0.432,0.13
						c-0.121,0.086-0.29,0.252-0.517,0.486l-1.822,1.914v-3.933c0-0.33-0.074-0.582-0.221-0.751
						c-0.147-0.172-0.344-0.258-0.593-0.258c-0.256,0-0.457,0.093-0.596,0.283c-0.136,0.189-0.207,0.463-0.207,0.821v6.913
						c0,0.323,0.073,0.568,0.215,0.733c0.141,0.169,0.339,0.25,0.588,0.25c0.213,0,0.405-0.083,0.566-0.254
						c0.164-0.167,0.247-0.406,0.247-0.718v-1.291l0.88-0.83l1.428,2.353c0.182,0.277,0.329,0.471,0.436,0.58
						c0.106,0.108,0.261,0.159,0.458,0.159c0.227,0,0.413-0.073,0.554-0.221c0.142-0.151,0.214-0.352,0.214-0.609
						c0-0.089-0.029-0.19-0.082-0.289C297.47,477.522,297.379,477.378,297.258,477.182z"/>
					<path id="XMLID_478_" d="M299.449,476.956c-0.25,0-0.458,0.086-0.629,0.261c-0.171,0.173-0.257,0.382-0.257,0.622
						c0,0.287,0.091,0.51,0.268,0.666c0.18,0.159,0.39,0.237,0.634,0.237c0.237,0,0.444-0.078,0.624-0.241
						c0.174-0.157,0.264-0.379,0.264-0.662c0-0.243-0.09-0.454-0.264-0.626C299.909,477.042,299.698,476.956,299.449,476.956z"/>
					<path id="XMLID_477_" d="M306.835,476.029c-0.166,0-0.308,0.054-0.422,0.155c-0.113,0.104-0.219,0.246-0.318,0.428
						c-0.177,0.31-0.381,0.538-0.616,0.688c-0.23,0.15-0.509,0.226-0.834,0.226c-0.24,0-0.463-0.045-0.666-0.142
						c-0.201-0.093-0.372-0.228-0.516-0.408c-0.144-0.18-0.252-0.398-0.325-0.652c-0.075-0.256-0.114-0.537-0.114-0.843
						c0-0.646,0.146-1.161,0.439-1.533c0.293-0.375,0.682-0.561,1.158-0.561c0.333,0,0.606,0.075,0.82,0.227
						c0.219,0.148,0.424,0.375,0.623,0.674c0.108,0.157,0.209,0.269,0.299,0.339c0.09,0.068,0.201,0.103,0.338,0.103
						c0.202,0,0.377-0.068,0.524-0.202c0.143-0.135,0.214-0.301,0.214-0.492s-0.062-0.397-0.192-0.617
						c-0.127-0.218-0.314-0.423-0.556-0.619c-0.245-0.192-0.54-0.353-0.891-0.475c-0.353-0.123-0.736-0.185-1.156-0.185
						c-0.674,0-1.26,0.139-1.747,0.419c-0.485,0.279-0.858,0.674-1.113,1.184c-0.259,0.511-0.387,1.098-0.387,1.765
						c0,0.981,0.281,1.764,0.841,2.349c0.563,0.583,1.345,0.876,2.349,0.876c0.469,0,0.894-0.066,1.269-0.191
						c0.377-0.126,0.688-0.295,0.935-0.502c0.248-0.208,0.434-0.425,0.553-0.656c0.122-0.229,0.183-0.446,0.183-0.647
						c0-0.169-0.067-0.33-0.199-0.48C307.198,476.107,307.033,476.029,306.835,476.029z"/>
					<path id="XMLID_474_" d="M313.646,473.065c-0.288-0.29-0.628-0.518-1.026-0.674c-0.4-0.161-0.847-0.239-1.336-0.239
						c-0.482,0-0.924,0.078-1.326,0.233c-0.398,0.158-0.737,0.381-1.02,0.669c-0.281,0.288-0.498,0.637-0.649,1.045
						c-0.146,0.408-0.224,0.858-0.224,1.35c0,0.485,0.076,0.929,0.22,1.331c0.151,0.401,0.368,0.75,0.656,1.048
						c0.285,0.292,0.627,0.521,1.017,0.677c0.393,0.159,0.835,0.239,1.326,0.239c0.492,0,0.937-0.08,1.336-0.234
						c0.394-0.158,0.735-0.383,1.02-0.676c0.286-0.291,0.501-0.641,0.656-1.049c0.146-0.408,0.222-0.855,0.222-1.336
						c0-0.489-0.075-0.932-0.221-1.339C314.148,473.709,313.934,473.362,313.646,473.065z M312.455,476.982
						c-0.29,0.372-0.682,0.557-1.171,0.557c-0.324,0-0.604-0.086-0.846-0.252c-0.24-0.168-0.424-0.41-0.554-0.728
						c-0.13-0.317-0.193-0.685-0.193-1.108c0-0.429,0.066-0.804,0.197-1.125c0.131-0.321,0.314-0.564,0.556-0.727
						c0.242-0.164,0.521-0.246,0.84-0.246c0.489,0,0.881,0.183,1.171,0.555c0.289,0.367,0.436,0.881,0.436,1.543
						C312.891,476.1,312.744,476.612,312.455,476.982z"/>
					<path id="XMLID_473_" d="M323.569,472.426c-0.32-0.173-0.705-0.262-1.146-0.262c-0.381,0-0.726,0.081-1.038,0.241
						c-0.314,0.161-0.607,0.407-0.882,0.737c-0.191-0.325-0.431-0.572-0.725-0.735c-0.292-0.161-0.642-0.243-1.048-0.243
						c-0.395,0-0.748,0.079-1.07,0.241c-0.319,0.155-0.62,0.403-0.903,0.737v-0.153c0-0.261-0.073-0.466-0.222-0.615
						c-0.15-0.145-0.334-0.222-0.557-0.222c-0.226,0-0.412,0.078-0.556,0.239c-0.14,0.156-0.21,0.389-0.21,0.694v4.636
						c0,0.336,0.078,0.591,0.235,0.765c0.156,0.171,0.358,0.258,0.605,0.258c0.248,0,0.447-0.087,0.603-0.258
						c0.149-0.174,0.227-0.429,0.227-0.765v-2.188c0-0.684,0.086-1.206,0.253-1.566c0.169-0.369,0.517-0.551,1.048-0.551
						c0.264,0,0.459,0.072,0.582,0.22c0.121,0.142,0.197,0.331,0.226,0.552c0.027,0.227,0.04,0.544,0.04,0.953v2.581
						c0,0.341,0.078,0.594,0.232,0.767c0.148,0.171,0.35,0.256,0.595,0.256c0.254,0,0.454-0.085,0.61-0.256
						c0.156-0.173,0.23-0.426,0.23-0.767v-2.153c0-0.694,0.063-1.178,0.178-1.453c0.109-0.209,0.259-0.383,0.45-0.508
						c0.192-0.125,0.395-0.191,0.609-0.191c0.264,0,0.463,0.072,0.596,0.215c0.128,0.142,0.209,0.318,0.238,0.529
						c0.029,0.209,0.044,0.486,0.044,0.836v2.726c0,0.336,0.078,0.591,0.234,0.765c0.157,0.171,0.356,0.258,0.604,0.258
						c0.252,0,0.458-0.085,0.611-0.256c0.154-0.173,0.229-0.426,0.229-0.767v-3.164c0-0.629-0.068-1.09-0.206-1.385
						C324.128,472.85,323.889,472.6,323.569,472.426z"/>
				</g>
				<g id="XMLID_458_">
					<path id="XMLID_471_" d="M245.273,475.057c-0.001-0.004-0.001-0.006-0.001-0.011
						C245.272,475.051,245.272,475.053,245.273,475.057z"/>
					<path id="XMLID_470_" d="M245.355,475.574c0.001,0,0.001,0,0.001,0c-0.03-0.148-0.055-0.294-0.073-0.439
						C245.301,475.282,245.326,475.429,245.355,475.574z"/>
					<path id="XMLID_469_" d="M245.892,477.078c-0.004-0.006-0.007-0.013-0.011-0.02
						C245.885,477.065,245.888,477.072,245.892,477.078z"/>
					<path id="XMLID_468_" d="M245.84,476.979c-0.014-0.027-0.027-0.057-0.04-0.084C245.813,476.924,245.826,476.951,245.84,476.979
						z"/>
					<path id="XMLID_467_" d="M245.506,476.154c0.079,0.25,0.175,0.492,0.285,0.724c-0.113-0.236-0.206-0.479-0.284-0.724H245.506z"
						/>
					<path id="XMLID_466_" d="M250.736,468.294l-0.076-0.26c0.299-0.063,0.523-0.328,0.523-0.646c0-0.364-0.296-0.659-0.66-0.659
						c-0.365,0-0.66,0.295-0.66,0.659c0,0.317,0.225,0.583,0.522,0.646l0.084,0.29c-1.021,0.14-1.834,0.538-1.834,0.538l0.144,0.441
						c0.617-0.206,1.153-0.331,1.639-0.384c0.476-0.051,0.834-0.072,1.126-0.072c0.314,0,0.545,0.024,0.81,0.068l0.075-0.476
						C252.43,468.44,251.697,468.216,250.736,468.294z"/>
					<path id="XMLID_465_" d="M245.453,470.801c-0.017,0.023-0.497,0.465-0.876,1.279c-0.016-0.025-0.035-0.05-0.056-0.074
						c-0.114-0.124-0.273-0.188-0.474-0.184c-0.003,0-0.006,0-0.01,0c-0.125,0-0.21-0.041-0.266-0.092
						c0.056-0.071,0.089-0.161,0.089-0.259c0-0.23-0.188-0.418-0.419-0.418c-0.23,0-0.418,0.188-0.418,0.418
						c0,0.231,0.188,0.418,0.418,0.418c0.037,0,0.071-0.006,0.105-0.013c0.102,0.114,0.266,0.214,0.504,0.209
						c0.123-0.001,0.214,0.03,0.273,0.097c0.07,0.076,0.093,0.185,0.1,0.267c0,0.002,0,0.004-0.002,0.004
						c-0.272,0.743-0.194,1.669-0.194,1.669l0.661,0.025c0.014-0.336,0.062-0.926,0.232-1.393c0.329-0.906,0.741-1.472,0.758-1.495
						l0.003-0.005c0.024-0.031,0.047-0.061,0.071-0.089l-0.196-0.143L245.453,470.801z"/>
					<path id="XMLID_464_" d="M257.294,469.4c-0.23,0-0.419,0.188-0.419,0.418c0,0.036,0.006,0.07,0.015,0.104
						c-0.114,0.104-0.214,0.268-0.21,0.507c0.002,0.123-0.03,0.212-0.097,0.272c-0.053,0.047-0.119,0.072-0.185,0.088
						c-0.492-0.689-1.098-1.109-1.098-1.109l-0.474,0.508c0.358,0.326,0.725,0.734,1.08,1.244c0.246,0.352,0.499,0.806,0.71,1.259
						l0.64-0.304c0,0-0.292-0.722-0.703-1.369c0.071-0.025,0.143-0.064,0.206-0.12c0.125-0.113,0.188-0.273,0.184-0.474
						c-0.001-0.13,0.041-0.218,0.093-0.276c0.071,0.055,0.16,0.089,0.258,0.089c0.232,0,0.418-0.188,0.418-0.418
						C257.712,469.587,257.525,469.4,257.294,469.4z"/>
					<path id="XMLID_463_" d="M255.633,475.15c-0.88,0.429-2.33,0.995-4.236,1.262c-0.749,0.103-1.475,0.142-2.143,0.142
						c-0.869,0-1.637-0.065-2.227-0.139c-0.672-0.085-1.198-0.189-1.52-0.261c0.078,0.244,0.171,0.487,0.284,0.724
						c0.002,0.006,0.005,0.013,0.008,0.017c0.013,0.027,0.027,0.057,0.04,0.084c0.014,0.027,0.027,0.054,0.041,0.079
						c0.004,0.008,0.007,0.015,0.011,0.02c0.189,0.356,0.417,0.685,0.675,0.968c0.899,0.984,1.816,1.14,1.825,1.142l0.015,0.002
						l0.013,0.005c0.009,0.003,0.821,0.265,2.057,0.265c1.215,0,2.409-0.245,3.545-0.729c0.842-0.431,1.639-1.085,2.033-1.669
						c0.305-0.451,0.526-0.934,0.656-1.434c0.069-0.266,0.124-0.692,0.092-1.14C256.555,474.654,256.163,474.892,255.633,475.15z"/>
					<path id="XMLID_459_" d="M252.322,469.268c-0.265-0.043-0.477-0.068-0.777-0.068c-0.279,0-0.626,0.022-1.088,0.071
						c-0.465,0.049-0.982,0.171-1.583,0.373c-0.842,0.281-1.603,0.724-2.204,1.279l-0.02,0.019
						c-0.089,0.081-0.274,0.254-0.488,0.525c-0.025,0.038-0.408,0.578-0.709,1.408c-0.226,0.622-0.216,1.526-0.216,1.537v0.002
						c0,0.212,0.013,0.423,0.036,0.632c0,0.005,0,0.007,0.001,0.011c0.002,0.026,0.007,0.053,0.01,0.079
						c0.018,0.145,0.043,0.291,0.074,0.439c0.438,0.111,3.048,0.721,5.966,0.314c1.828-0.255,3.218-0.796,4.061-1.204
						c0.701-0.34,1.151-0.647,1.325-0.774c-0.174-0.643-0.651-1.649-1.089-2.278C254.367,469.842,253.016,469.382,252.322,469.268z
						 M248.679,474.526c-0.971,0-1.759-0.787-1.759-1.759c0-0.972,0.788-1.761,1.759-1.761c0.973,0,1.761,0.789,1.761,1.761
						C250.439,473.739,249.651,474.526,248.679,474.526z M253.828,473.229c-0.601,0-1.088-0.488-1.088-1.09
						c0-0.602,0.487-1.089,1.088-1.089s1.09,0.487,1.09,1.089C254.918,472.741,254.429,473.229,253.828,473.229z"/>
				</g>
			</g>
		</g>
	</g>
</g>
</svg>
