<svg width="33" height="33" viewBox="0 0 33 33" fill="none" xmlns="http://www.w3.org/2000/svg">
<path opacity="0.1" fill-rule="evenodd" clip-rule="evenodd" d="M0.5 16.8359C0.5 7.99932 7.66344 0.835876 16.5 0.835876C25.3366 0.835876 32.5 7.99932 32.5 16.8359C32.5 25.6724 25.3366 32.8359 16.5 32.8359C7.66344 32.8359 0.5 25.6724 0.5 16.8359Z" fill="white"/>
<path fill-rule="evenodd" clip-rule="evenodd" d="M16.5007 8.30249C14.1832 8.30249 13.8923 8.31262 12.9821 8.35405C12.0736 8.39565 11.4535 8.53947 10.9109 8.75049C10.3497 8.96845 9.87359 9.26001 9.39928 9.73451C8.92461 10.2088 8.63305 10.6849 8.41438 11.246C8.20282 11.7887 8.05882 12.409 8.01793 13.3171C7.97722 14.2274 7.96655 14.5184 7.96655 16.8359C7.96655 19.1534 7.97686 19.4434 8.01811 20.3536C8.05989 21.2621 8.20371 21.8822 8.41456 22.4248C8.63269 22.986 8.92425 23.4621 9.39875 23.9364C9.87288 24.4111 10.349 24.7034 10.9099 24.9213C11.4528 25.1324 12.0731 25.2762 12.9814 25.3178C13.8916 25.3592 14.1823 25.3693 16.4996 25.3693C18.8173 25.3693 19.1073 25.3592 20.0175 25.3178C20.926 25.2762 21.5468 25.1324 22.0897 24.9213C22.6508 24.7034 23.1262 24.4111 23.6003 23.9364C24.075 23.4621 24.3665 22.986 24.5852 22.4249C24.795 21.8822 24.939 21.2619 24.9817 20.3538C25.0226 19.4436 25.0332 19.1534 25.0332 16.8359C25.0332 14.5184 25.0226 14.2275 24.9817 13.3173C24.939 12.4088 24.795 11.7887 24.5852 11.2462C24.3665 10.6849 24.075 10.2088 23.6003 9.73451C23.1256 9.25983 22.651 8.96827 22.0892 8.75049C21.5452 8.53947 20.9247 8.39565 20.0163 8.35405C19.106 8.31262 18.8163 8.30249 16.498 8.30249H16.5007ZM15.7351 9.84026C15.9623 9.8399 16.2158 9.84026 16.5006 9.84026C18.7791 9.84026 19.0491 9.84844 19.9489 9.88933C20.7809 9.92737 21.2324 10.0664 21.5332 10.1832C21.9315 10.3379 22.2154 10.5228 22.5139 10.8214C22.8125 11.1201 22.9974 11.4045 23.1525 11.8028C23.2693 12.1032 23.4085 12.5548 23.4463 13.3868C23.4872 14.2864 23.4961 14.5566 23.4961 16.8339C23.4961 19.1113 23.4872 19.3815 23.4463 20.2811C23.4083 21.1131 23.2693 21.5646 23.1525 21.8651C22.9978 22.2633 22.8125 22.5469 22.5139 22.8454C22.2152 23.144 21.9316 23.3289 21.5332 23.4836C21.2328 23.6009 20.7809 23.7396 19.9489 23.7777C19.0493 23.8185 18.7791 23.8274 16.5006 23.8274C14.222 23.8274 13.952 23.8185 13.0524 23.7777C12.2204 23.7393 11.7689 23.6002 11.4679 23.4834C11.0697 23.3288 10.7852 23.1439 10.4865 22.8452C10.1879 22.5465 10.003 22.2628 9.84796 21.8644C9.73116 21.5639 9.59196 21.1124 9.55409 20.2804C9.5132 19.3808 9.50502 19.1106 9.50502 16.8318C9.50502 14.553 9.5132 14.2842 9.55409 13.3847C9.59213 12.5526 9.73116 12.1011 9.84796 11.8003C10.0026 11.4021 10.1879 11.1176 10.4865 10.8189C10.7852 10.5203 11.0697 10.3354 11.4679 10.1804C11.7687 10.063 12.2204 9.92435 13.0524 9.88613C13.8396 9.85057 14.1447 9.8399 15.7351 9.83813V9.84026ZM21.0557 11.2572C20.4904 11.2572 20.0317 11.7153 20.0317 12.2808C20.0317 12.8462 20.4904 13.3048 21.0557 13.3048C21.6211 13.3048 22.0797 12.8462 22.0797 12.2808C22.0797 11.7155 21.6211 11.2572 21.0557 11.2572ZM16.5007 12.4536C14.0806 12.4536 12.1184 14.4158 12.1184 16.8359C12.1184 19.256 14.0806 21.2173 16.5007 21.2173C18.9208 21.2173 20.8823 19.256 20.8823 16.8359C20.8823 14.4158 18.9208 12.4536 16.5007 12.4536ZM16.5007 13.9914C18.0715 13.9914 19.3451 15.2649 19.3451 16.8359C19.3451 18.4067 18.0715 19.6804 16.5007 19.6804C14.9296 19.6804 13.6562 18.4067 13.6562 16.8359C13.6562 15.2649 14.9296 13.9914 16.5007 13.9914Z" fill="white"/>
</svg>
