<svg width="33" height="33" viewBox="0 0 33 33" fill="none" xmlns="http://www.w3.org/2000/svg">
<path opacity="0.1" fill-rule="evenodd" clip-rule="evenodd" d="M0.5 16.8359C0.5 7.99932 7.66344 0.835876 16.5 0.835876C25.3366 0.835876 32.5 7.99932 32.5 16.8359C32.5 25.6724 25.3366 32.8359 16.5 32.8359C7.66344 32.8359 0.5 25.6724 0.5 16.8359Z" fill="white"/>
<path fill-rule="evenodd" clip-rule="evenodd" d="M16.0208 13.8409L16.0544 14.3945L15.4948 14.3268C13.4579 14.0669 11.6784 13.1856 10.1676 11.7055L9.42891 10.971L9.23865 11.5134C8.83575 12.7223 9.09316 13.9991 9.93253 14.8578C10.3802 15.3323 10.2795 15.4001 9.50725 15.1177C9.23865 15.0273 9.00363 14.9595 8.98124 14.9934C8.9029 15.0725 9.1715 16.1007 9.38414 16.5074C9.67513 17.0723 10.2683 17.626 10.9174 17.9536L11.4658 18.2135L10.8167 18.2248C10.1899 18.2248 10.1676 18.2361 10.2347 18.4734C10.4585 19.2078 11.3427 19.9874 12.3276 20.3264L13.0214 20.5636L12.4171 20.9252C11.5218 21.4449 10.4697 21.7387 9.41772 21.7613C8.91409 21.7726 8.5 21.8178 8.5 21.8517C8.5 21.9647 9.86538 22.5974 10.66 22.846C13.0438 23.5804 15.8753 23.264 18.0017 22.0099C19.5126 21.1173 21.0235 19.3434 21.7286 17.626C22.1091 16.7108 22.4896 15.0386 22.4896 14.2364C22.4896 13.7166 22.5232 13.6488 23.1499 13.0274C23.5192 12.6658 23.8662 12.2704 23.9333 12.1574C24.0452 11.9427 24.034 11.9427 23.4633 12.1348C22.512 12.4738 22.3777 12.4286 22.8477 11.9201C23.1947 11.5586 23.6088 10.9033 23.6088 10.7112C23.6088 10.6773 23.4409 10.7338 23.2506 10.8355C23.0492 10.9484 22.6015 11.1179 22.2658 11.2196L21.6614 11.4117L21.113 11.0388C20.8108 10.8355 20.3856 10.6095 20.1617 10.5417C19.5909 10.3835 18.718 10.4061 18.2032 10.5869C16.8042 11.0953 15.9201 12.406 16.0208 13.8409Z" fill="white"/>
</svg>
