<svg width="33" height="33" viewBox="0 0 33 33" fill="none" xmlns="http://www.w3.org/2000/svg">
<path opacity="0.1" fill-rule="evenodd" clip-rule="evenodd" d="M0.5 16.8359C0.5 7.99932 7.66344 0.835876 16.5 0.835876C25.3366 0.835876 32.5 7.99932 32.5 16.8359C32.5 25.6724 25.3366 32.8359 16.5 32.8359C7.66344 32.8359 0.5 25.6724 0.5 16.8359Z" fill="white"/>
<path fill-rule="evenodd" clip-rule="evenodd" d="M23.1679 11.3355C23.9022 11.537 24.4805 12.1307 24.6768 12.8847C25.0335 14.2513 25.0335 17.1026 25.0335 17.1026C25.0335 17.1026 25.0335 19.9538 24.6768 21.3204C24.4805 22.0744 23.9022 22.6682 23.1679 22.8698C21.8371 23.2359 16.5001 23.2359 16.5001 23.2359C16.5001 23.2359 11.1632 23.2359 9.8323 22.8698C9.09795 22.6682 8.51962 22.0744 8.32335 21.3204C7.9668 19.9538 7.9668 17.1026 7.9668 17.1026C7.9668 17.1026 7.9668 14.2513 8.32335 12.8847C8.51962 12.1307 9.09795 11.537 9.8323 11.3355C11.1632 10.9692 16.5001 10.9692 16.5001 10.9692C16.5001 10.9692 21.8371 10.9692 23.1679 11.3355ZM14.9001 14.7025V20.0358L19.1668 17.3693L14.9001 14.7025Z" fill="white"/>
</svg>
